<svg xmlns="http://www.w3.org/2000/svg" viewBox="0 0 380 250"><defs>
<linearGradient id="bam" x1="0" x2="1"><stop offset="0" stop-color="#e8a33c"/><stop offset=".4" stop-color="#ffe08a"/><stop offset="1" stop-color="#c9741c"/></linearGradient>
<linearGradient id="wd" x1="0" y1="0" x2="0" y2="1"><stop offset="0" stop-color="#b3141a"/><stop offset="1" stop-color="#5a0808"/></linearGradient></defs>
<style>@keyframes gl{0%,100%{filter:brightness(1)}50%{filter:brightness(1.3)}}.tb{animation:gl 3.6s ease-in-out infinite}</style>
<path d="M30 196 L350 196 L350 214 L30 214Z" fill="url(#wd)"/><path d="M42 214 L28 250 L48 250 L58 214Z M322 214 L336 250 L316 250 L306 214Z" fill="#5a0808"/>
<rect x="30" y="150" width="320" height="8" rx="3" fill="url(#wd)" opacity=".9"/>
<g class="tb" style="animation-delay:0.0s"><rect x="30" y="30.0" width="18" height="170.0" rx="3" fill="url(#bam)"/><ellipse cx="39" cy="32.0" rx="7" ry="3.2" fill="#5a0808"/>
<rect x="30" y="101.39999999999999" width="18" height="3" fill="#a05a1a" opacity=".7"/><rect x="30" y="159.2" width="18" height="3" fill="#a05a1a" opacity=".7"/><rect x="32.5" y="38.0" width="3" height="154.0" rx="1.5" fill="#fff3c8" opacity=".5"/></g><g class="tb" style="animation-delay:0.35s"><rect x="54" y="39.5" width="18" height="160.5" rx="3" fill="url(#bam)"/><ellipse cx="63" cy="41.5" rx="7" ry="3.2" fill="#5a0808"/>
<rect x="54" y="106.91" width="18" height="3" fill="#a05a1a" opacity=".7"/><rect x="54" y="161.48000000000002" width="18" height="3" fill="#a05a1a" opacity=".7"/><rect x="56.5" y="47.5" width="3" height="144.5" rx="1.5" fill="#fff3c8" opacity=".5"/></g><g class="tb" style="animation-delay:0.7s"><rect x="78" y="49.0" width="18" height="151.0" rx="3" fill="url(#bam)"/><ellipse cx="87" cy="51.0" rx="7" ry="3.2" fill="#5a0808"/>
<rect x="78" y="112.41999999999999" width="18" height="3" fill="#a05a1a" opacity=".7"/><rect x="78" y="163.76" width="18" height="3" fill="#a05a1a" opacity=".7"/><rect x="80.5" y="57.0" width="3" height="135.0" rx="1.5" fill="#fff3c8" opacity=".5"/></g><g class="tb" style="animation-delay:1.0499999999999998s"><rect x="102" y="58.5" width="18" height="141.5" rx="3" fill="url(#bam)"/><ellipse cx="111" cy="60.5" rx="7" ry="3.2" fill="#5a0808"/>
<rect x="102" y="117.93" width="18" height="3" fill="#a05a1a" opacity=".7"/><rect x="102" y="166.04000000000002" width="18" height="3" fill="#a05a1a" opacity=".7"/><rect x="104.5" y="66.5" width="3" height="125.5" rx="1.5" fill="#fff3c8" opacity=".5"/></g><g class="tb" style="animation-delay:1.4s"><rect x="126" y="68.0" width="18" height="132.0" rx="3" fill="url(#bam)"/><ellipse cx="135" cy="70.0" rx="7" ry="3.2" fill="#5a0808"/>
<rect x="126" y="123.44" width="18" height="3" fill="#a05a1a" opacity=".7"/><rect x="126" y="168.32" width="18" height="3" fill="#a05a1a" opacity=".7"/><rect x="128.5" y="76.0" width="3" height="116.0" rx="1.5" fill="#fff3c8" opacity=".5"/></g><g class="tb" style="animation-delay:1.75s"><rect x="150" y="77.5" width="18" height="122.5" rx="3" fill="url(#bam)"/><ellipse cx="159" cy="79.5" rx="7" ry="3.2" fill="#5a0808"/>
<rect x="150" y="128.95" width="18" height="3" fill="#a05a1a" opacity=".7"/><rect x="150" y="170.6" width="18" height="3" fill="#a05a1a" opacity=".7"/><rect x="152.5" y="85.5" width="3" height="106.5" rx="1.5" fill="#fff3c8" opacity=".5"/></g><g class="tb" style="animation-delay:2.0999999999999996s"><rect x="174" y="87.0" width="18" height="113.0" rx="3" fill="url(#bam)"/><ellipse cx="183" cy="89.0" rx="7" ry="3.2" fill="#5a0808"/>
<rect x="174" y="134.46" width="18" height="3" fill="#a05a1a" opacity=".7"/><rect x="174" y="172.88" width="18" height="3" fill="#a05a1a" opacity=".7"/><rect x="176.5" y="95.0" width="3" height="97.0" rx="1.5" fill="#fff3c8" opacity=".5"/></g><g class="tb" style="animation-delay:2.4499999999999997s"><rect x="198" y="96.5" width="18" height="103.5" rx="3" fill="url(#bam)"/><ellipse cx="207" cy="98.5" rx="7" ry="3.2" fill="#5a0808"/>
<rect x="198" y="139.97" width="18" height="3" fill="#a05a1a" opacity=".7"/><rect x="198" y="175.16" width="18" height="3" fill="#a05a1a" opacity=".7"/><rect x="200.5" y="104.5" width="3" height="87.5" rx="1.5" fill="#fff3c8" opacity=".5"/></g><g class="tb" style="animation-delay:2.8s"><rect x="222" y="106.0" width="18" height="94.0" rx="3" fill="url(#bam)"/><ellipse cx="231" cy="108.0" rx="7" ry="3.2" fill="#5a0808"/>
<rect x="222" y="145.48" width="18" height="3" fill="#a05a1a" opacity=".7"/><rect x="222" y="177.44" width="18" height="3" fill="#a05a1a" opacity=".7"/><rect x="224.5" y="114.0" width="3" height="78.0" rx="1.5" fill="#fff3c8" opacity=".5"/></g><g class="tb" style="animation-delay:3.15s"><rect x="246" y="115.5" width="18" height="84.5" rx="3" fill="url(#bam)"/><ellipse cx="255" cy="117.5" rx="7" ry="3.2" fill="#5a0808"/>
<rect x="246" y="150.99" width="18" height="3" fill="#a05a1a" opacity=".7"/><rect x="246" y="179.72" width="18" height="3" fill="#a05a1a" opacity=".7"/><rect x="248.5" y="123.5" width="3" height="68.5" rx="1.5" fill="#fff3c8" opacity=".5"/></g><g class="tb" style="animation-delay:3.5s"><rect x="270" y="125.0" width="18" height="75.0" rx="3" fill="url(#bam)"/><ellipse cx="279" cy="127.0" rx="7" ry="3.2" fill="#5a0808"/>
<rect x="270" y="156.5" width="18" height="3" fill="#a05a1a" opacity=".7"/><rect x="270" y="182.0" width="18" height="3" fill="#a05a1a" opacity=".7"/><rect x="272.5" y="133.0" width="3" height="59.0" rx="1.5" fill="#fff3c8" opacity=".5"/></g><g class="tb" style="animation-delay:3.8499999999999996s"><rect x="294" y="134.5" width="18" height="65.5" rx="3" fill="url(#bam)"/><ellipse cx="303" cy="136.5" rx="7" ry="3.2" fill="#5a0808"/>
<rect x="294" y="162.01" width="18" height="3" fill="#a05a1a" opacity=".7"/><rect x="294" y="184.28" width="18" height="3" fill="#a05a1a" opacity=".7"/><rect x="296.5" y="142.5" width="3" height="49.5" rx="1.5" fill="#fff3c8" opacity=".5"/></g><g class="tb" style="animation-delay:4.199999999999999s"><rect x="318" y="144.0" width="18" height="56.0" rx="3" fill="url(#bam)"/><ellipse cx="327" cy="146.0" rx="7" ry="3.2" fill="#5a0808"/>
<rect x="318" y="167.52" width="18" height="3" fill="#a05a1a" opacity=".7"/><rect x="318" y="186.56" width="18" height="3" fill="#a05a1a" opacity=".7"/><rect x="320.5" y="152.0" width="3" height="40.0" rx="1.5" fill="#fff3c8" opacity=".5"/></g>
</svg>